M48
; DRILL file {KiCad (5.1.5)-3} date 11/11/2020 21:52:07
; FORMAT={-:-/ absolute / inch / decimal}
; #@! TF.CreationDate,2020-11-11T21:52:07+01:00
; #@! TF.GenerationSoftware,Kicad,Pcbnew,(5.1.5)-3
; #@! TF.FileFunction,Plated,1,2,PTH
FMAT,2
INCH
T1C0.0120
T2C0.0157
T3C0.0200
T4C0.0236
T5C0.0394
T6C0.0400
T7C0.0551
%
G90
G05
T1
X0.1394Y-0.3748
X0.3626Y-0.1965
X1.1181Y-0.2016
X1.3079Y-0.2165
X1.7016Y-3.2766
X1.7024Y-3.4083
X1.7579Y-3.2201
X1.8236Y-3.578
X1.8748Y-0.1949
X2.2799Y-2.963
X2.339Y-3.3177
X2.3543Y-3.0646
X2.439Y-3.2248
X2.4831Y-2.7421
X2.6205Y-0.1965
X2.6391Y-3.2766
X2.6394Y-3.4268
X2.6437Y-3.4776
X2.6634Y-3.2323
X2.8217Y-2.9795
X2.8496Y-3.5705
X3.0748Y-3.2409
X3.3728Y-0.2035
X3.9256Y-3.0669
X4.1165Y-0.2
X4.8709Y-0.1984
X5.4598Y-0.2969
X5.4988Y-3.0611
X5.5205Y-0.7878
X5.5744Y-1.4445
X5.5764Y-1.2961
X5.5886Y-0.0417
X5.6224Y-1.7189
X5.6224Y-1.8402
X5.6248Y-0.1831
X5.6248Y-0.25
X5.6256Y-0.7131
X5.6343Y-0.0417
X5.6677Y-0.6717
X5.6687Y-0.4671
X5.722Y-1.4441
X5.7224Y-1.2957
X5.7465Y-0.6717
X5.7551Y-2.0461
X5.772Y-0.7055
X5.7948Y-0.2969
X5.8476Y-0.6776
X5.898Y-2.2039
X5.9114Y-0.8752
X5.9531Y-3.1689
X5.9886Y-2.0453
X5.9969Y-2.4661
X6.002Y-3.5929
X6.024Y-2.989
X6.0488Y-3.2646
X6.0929Y-2.2039
X6.1461Y-2.7969
X6.1492Y-3.574
X6.1539Y-2.9476
X6.278Y-2.7969
X6.2799Y-3.1772
X6.3972Y-2.8642
X6.4693Y-3.0157
X6.6799Y-3.389
X6.6997Y-3.3535
X6.7091Y-3.0346
X6.7101Y-2.958
X6.72Y-3.231
X6.737Y-3.4142
X6.751Y-3.5301
X6.7679Y-3.4411
X6.7819Y-3.1894
X6.7917Y-3.4052
X7.002Y-3.5327
X7.027Y-3.008
X7.1193Y-0.1984
X7.1431Y-3.1423
X7.189Y-2.8594
X7.1961Y-3.5008
X7.204Y-2.941
X7.5744Y-3.4039
X7.6669Y-3.287
X7.8776Y-0.2091
X8.137Y-3.0921
X8.2106Y-1.8713
X8.2472Y-2.4528
X8.2701Y-3.2551
X8.6157Y-0.2091
X8.6449Y-3.4354
X8.8602Y-3.5677
X8.9657Y-3.1075
X9.3646Y-0.2
X9.5587Y-0.2083
X9.6886Y-3.3173
X9.7657Y-3.4339
X10.2205Y-2.4559
X10.2705Y-3.324
X10.4094Y-1.7118
X10.6902Y-3.2
X10.6988Y-0.9579
T2
X5.961Y-0.607
X6.1009Y-3.4003
X6.111Y-3.507
X6.1345Y-3.378
X6.156Y-3.344
X6.338Y-3.412
X6.8799Y-3.2899
X7.2189Y-3.2319
X7.2528Y-3.2102
X7.2866Y-3.1839
X7.3213Y-3.1583
X7.3413Y-2.7961
X7.4646Y-3.1646
X7.4978Y-3.1309
X7.714Y-2.986
X7.82Y-0.546
X7.846Y-0.704
X7.966Y-1.296
X8.004Y-3.5076
X8.0171Y-2.9193
X8.06Y-3.56
X8.0974Y-1.442
X8.1272Y-2.8508
X8.1431Y-2.0449
X8.158Y-2.202
X8.158Y-3.144
X8.318Y-3.1737
X8.4421Y-3.4821
T3
X5.5283Y-0.1441
X5.624Y-0.3583
X5.7217Y-0.1453
T5
X5.218Y-3.32
X5.218Y-3.42
T6
X7.9585Y-3.32
X7.9585Y-3.42
X8.0585Y-3.32
X8.0585Y-3.42
X8.1585Y-3.32
X8.1585Y-3.42
T7
X7.0266Y-0.2175
X7.225Y-0.175
X4.7766Y-0.2175
X4.975Y-0.175
X5.5266Y-3.2175
X5.725Y-3.175
X4.5891Y-1.7175
X4.7875Y-1.675
X2.1516Y-0.9675
X2.35Y-0.925
X6.8391Y-1.7175
X7.0375Y-1.675
X10.5891Y-0.9675
X10.7875Y-0.925
X3.6516Y-0.9675
X3.85Y-0.925
X10.5891Y-3.2175
X10.7875Y-3.175
X1.0266Y-0.2175
X1.225Y-0.175
X4.0266Y-0.2175
X4.225Y-0.175
X3.2766Y-0.2175
X3.475Y-0.175
X0.7453Y-2.4675
X0.9437Y-2.425
X5.3391Y-1.7175
X5.5375Y-1.675
X0.4641Y-0.9675
X0.6625Y-0.925
X8.7141Y-2.4675
X8.9125Y-2.425
X4.4016Y-0.9675
X4.6Y-0.925
X8.9016Y-0.9675
X9.1Y-0.925
X0.4641Y-3.2175
X0.6625Y-3.175
X2.5266Y-0.2175
X2.725Y-0.175
X8.5266Y-0.2175
X8.725Y-0.175
X8.3391Y-1.7175
X8.5375Y-1.675
X0.5578Y-1.7175
X0.7562Y-1.675
X6.4641Y-2.4675
X6.6625Y-2.425
X7.4016Y-0.9675
X7.6Y-0.925
X4.2141Y-2.4675
X4.4125Y-2.425
X1.5891Y-1.7175
X1.7875Y-1.675
X6.6516Y-0.9675
X6.85Y-0.925
X5.5266Y-3.2175
X5.725Y-3.175
X0.2766Y-0.2175
X0.475Y-0.175
X5.525Y-0.575
X5.7234Y-0.5325
X7.7766Y-0.2175
X7.975Y-0.175
X6.0891Y-1.7175
X6.2875Y-1.675
X10.3078Y-1.7175
X10.5062Y-1.675
X3.4641Y-2.4675
X3.6625Y-2.425
X9.6516Y-0.9675
X9.85Y-0.925
X7.9641Y-2.4675
X8.1625Y-2.425
X8.1516Y-0.9675
X8.35Y-0.925
X2.525Y-3.575
X2.7234Y-3.5325
X9.5563Y-3.575
X9.7547Y-3.5325
X7.5891Y-1.7175
X7.7875Y-1.675
X9.0891Y-1.7175
X9.2875Y-1.675
X5.9016Y-0.9675
X6.1Y-0.925
X7.2141Y-2.4675
X7.4125Y-2.425
X9.2766Y-0.2175
X9.475Y-0.175
X2.3391Y-3.2175
X2.5375Y-3.175
X2.7141Y-2.4675
X2.9125Y-2.425
X1.4016Y-3.2175
X1.6Y-3.175
X10.1203Y-2.4675
X10.3187Y-2.425
X5.7141Y-2.4675
X5.9125Y-2.425
X3.8391Y-1.7175
X4.0375Y-1.675
X1.4016Y-0.9675
X1.6Y-0.925
X3.0891Y-1.7175
X3.2875Y-1.675
X0.3703Y-1.7175
X0.5687Y-1.675
X1.4937Y-3.575
X1.6922Y-3.5325
X9.6516Y-3.2175
X9.85Y-3.175
X6.2766Y-0.2175
X6.475Y-0.175
X1.7766Y-0.2175
X1.975Y-0.175
X10.4016Y-0.2175
X10.6Y-0.175
X8.525Y-3.575
X8.7234Y-3.5325
X4.9641Y-2.4675
X5.1625Y-2.425
X5.1516Y-0.9675
X5.35Y-0.925
X1.9641Y-2.4675
X2.1625Y-2.425
X2.3391Y-1.7175
X2.5375Y-1.675
X2.9016Y-0.9675
X3.1Y-0.925
X5.5266Y-3.2175
X5.725Y-3.175
X8.7141Y-3.2175
X8.9125Y-3.175
T4
G00X5.4547Y0.1236
M15
G01X5.4547Y0.1
M16
G05
G00X5.4547Y-0.0311
M15
G01X5.4547Y-0.0744
M16
G05
G00X5.7949Y0.1236
M15
G01X5.7949Y0.1
M16
G05
G00X5.7949Y-0.0311
M15
G01X5.7949Y-0.0744
M16
G05
T5
G00X6.1309Y-0.2844
M15
G01X6.1309Y-0.2687
M16
G05
G00X6.1309Y-0.4813
M15
G01X6.1309Y-0.4656
M16
G05
G00X6.6152Y-0.1388
M15
G01X6.5994Y-0.1388
M16
G05
G00X6.6152Y-0.6112
M15
G01X6.5994Y-0.6112
M16
G05
G00X1.6309Y-0.2844
M15
G01X1.6309Y-0.2687
M16
G05
G00X1.6309Y-0.4813
M15
G01X1.6309Y-0.4656
M16
G05
G00X2.1152Y-0.1388
M15
G01X2.0994Y-0.1388
M16
G05
G00X2.1152Y-0.6112
M15
G01X2.0994Y-0.6112
M16
G05
G00X10.2559Y-0.2844
M15
G01X10.2559Y-0.2687
M16
G05
G00X10.2559Y-0.4813
M15
G01X10.2559Y-0.4656
M16
G05
G00X10.7402Y-0.1388
M15
G01X10.7244Y-0.1388
M16
G05
G00X10.7402Y-0.6112
M15
G01X10.7244Y-0.6112
M16
G05
G00X8.3848Y-3.1388
M15
G01X8.4006Y-3.1388
M16
G05
G00X8.3848Y-3.6112
M15
G01X8.4006Y-3.6112
M16
G05
G00X8.8691Y-3.2687
M15
G01X8.8691Y-3.2844
M16
G05
G00X8.8691Y-3.4656
M15
G01X8.8691Y-3.4813
M16
G05
G00X4.8184Y-2.5344
M15
G01X4.8184Y-2.5187
M16
G05
G00X4.8184Y-2.7313
M15
G01X4.8184Y-2.7156
M16
G05
G00X5.3027Y-2.3888
M15
G01X5.2869Y-2.3888
M16
G05
G00X5.3027Y-2.8612
M15
G01X5.2869Y-2.8612
M16
G05
G00X5.0059Y-1.0344
M15
G01X5.0059Y-1.0187
M16
G05
G00X5.0059Y-1.2313
M15
G01X5.0059Y-1.2156
M16
G05
G00X5.4902Y-0.8888
M15
G01X5.4744Y-0.8888
M16
G05
G00X5.4902Y-1.3612
M15
G01X5.4744Y-1.3612
M16
G05
G00X1.8184Y-2.5344
M15
G01X1.8184Y-2.5187
M16
G05
G00X1.8184Y-2.7313
M15
G01X1.8184Y-2.7156
M16
G05
G00X2.3027Y-2.3888
M15
G01X2.2869Y-2.3888
M16
G05
G00X2.3027Y-2.8612
M15
G01X2.2869Y-2.8612
M16
G05
G00X2.1934Y-1.7844
M15
G01X2.1934Y-1.7687
M16
G05
G00X2.1934Y-1.9813
M15
G01X2.1934Y-1.9656
M16
G05
G00X2.6777Y-1.6388
M15
G01X2.6619Y-1.6388
M16
G05
G00X2.6777Y-2.1112
M15
G01X2.6619Y-2.1112
M16
G05
G00X2.7559Y-1.0344
M15
G01X2.7559Y-1.0187
M16
G05
G00X2.7559Y-1.2313
M15
G01X2.7559Y-1.2156
M16
G05
G00X3.2402Y-0.8888
M15
G01X3.2244Y-0.8888
M16
G05
G00X3.2402Y-1.3612
M15
G01X3.2244Y-1.3612
M16
G05
G00X5.3809Y-3.2844
M15
G01X5.3809Y-3.2687
M16
G05
G00X5.3809Y-3.4813
M15
G01X5.3809Y-3.4656
M16
G05
G00X5.8652Y-3.1388
M15
G01X5.8494Y-3.1388
M16
G05
G00X5.8652Y-3.6112
M15
G01X5.8494Y-3.6112
M16
G05
G00X8.5684Y-3.2844
M15
G01X8.5684Y-3.2687
M16
G05
G00X8.5684Y-3.4813
M15
G01X8.5684Y-3.4656
M16
G05
G00X9.0527Y-3.1388
M15
G01X9.0369Y-3.1388
M16
G05
G00X9.0527Y-3.6112
M15
G01X9.0369Y-3.6112
M16
G05
G00X6.8809Y-0.2844
M15
G01X6.8809Y-0.2687
M16
G05
G00X6.8809Y-0.4813
M15
G01X6.8809Y-0.4656
M16
G05
G00X7.3652Y-0.1388
M15
G01X7.3494Y-0.1388
M16
G05
G00X7.3652Y-0.6112
M15
G01X7.3494Y-0.6112
M16
G05
G00X4.6309Y-0.2844
M15
G01X4.6309Y-0.2687
M16
G05
G00X4.6309Y-0.4813
M15
G01X4.6309Y-0.4656
M16
G05
G00X5.1152Y-0.1388
M15
G01X5.0994Y-0.1388
M16
G05
G00X5.1152Y-0.6112
M15
G01X5.0994Y-0.6112
M16
G05
G00X5.3809Y-3.2844
M15
G01X5.3809Y-3.2687
M16
G05
G00X5.3809Y-3.4813
M15
G01X5.3809Y-3.4656
M16
G05
G00X5.8652Y-3.1388
M15
G01X5.8494Y-3.1388
M16
G05
G00X5.8652Y-3.6112
M15
G01X5.8494Y-3.6112
M16
G05
G00X4.4434Y-1.7844
M15
G01X4.4434Y-1.7687
M16
G05
G00X4.4434Y-1.9813
M15
G01X4.4434Y-1.9656
M16
G05
G00X4.9277Y-1.6388
M15
G01X4.9119Y-1.6388
M16
G05
G00X4.9277Y-2.1112
M15
G01X4.9119Y-2.1112
M16
G05
G00X2.0059Y-1.0344
M15
G01X2.0059Y-1.0187
M16
G05
G00X2.0059Y-1.2313
M15
G01X2.0059Y-1.2156
M16
G05
G00X2.4902Y-0.8888
M15
G01X2.4744Y-0.8888
M16
G05
G00X2.4902Y-1.3612
M15
G01X2.4744Y-1.3612
M16
G05
G00X6.6934Y-1.7844
M15
G01X6.6934Y-1.7687
M16
G05
G00X6.6934Y-1.9813
M15
G01X6.6934Y-1.9656
M16
G05
G00X7.1777Y-1.6388
M15
G01X7.1619Y-1.6388
M16
G05
G00X7.1777Y-2.1112
M15
G01X7.1619Y-2.1112
M16
G05
G00X10.4434Y-1.0344
M15
G01X10.4434Y-1.0187
M16
G05
G00X10.4434Y-1.2313
M15
G01X10.4434Y-1.2156
M16
G05
G00X10.9277Y-0.8888
M15
G01X10.9119Y-0.8888
M16
G05
G00X10.9277Y-1.3612
M15
G01X10.9119Y-1.3612
M16
G05
G00X3.5059Y-1.0344
M15
G01X3.5059Y-1.0187
M16
G05
G00X3.5059Y-1.2313
M15
G01X3.5059Y-1.2156
M16
G05
G00X3.9902Y-0.8888
M15
G01X3.9744Y-0.8888
M16
G05
G00X3.9902Y-1.3612
M15
G01X3.9744Y-1.3612
M16
G05
G00X10.4434Y-3.2844
M15
G01X10.4434Y-3.2687
M16
G05
G00X10.4434Y-3.4813
M15
G01X10.4434Y-3.4656
M16
G05
G00X10.9277Y-3.1388
M15
G01X10.9119Y-3.1388
M16
G05
G00X10.9277Y-3.6112
M15
G01X10.9119Y-3.6112
M16
G05
G00X0.8809Y-0.2844
M15
G01X0.8809Y-0.2687
M16
G05
G00X0.8809Y-0.4813
M15
G01X0.8809Y-0.4656
M16
G05
G00X1.3652Y-0.1388
M15
G01X1.3494Y-0.1388
M16
G05
G00X1.3652Y-0.6112
M15
G01X1.3494Y-0.6112
M16
G05
G00X3.8809Y-0.2844
M15
G01X3.8809Y-0.2687
M16
G05
G00X3.8809Y-0.4813
M15
G01X3.8809Y-0.4656
M16
G05
G00X4.3652Y-0.1388
M15
G01X4.3494Y-0.1388
M16
G05
G00X4.3652Y-0.6112
M15
G01X4.3494Y-0.6112
M16
G05
G00X3.1309Y-0.2844
M15
G01X3.1309Y-0.2687
M16
G05
G00X3.1309Y-0.4813
M15
G01X3.1309Y-0.4656
M16
G05
G00X3.6152Y-0.1388
M15
G01X3.5994Y-0.1388
M16
G05
G00X3.6152Y-0.6112
M15
G01X3.5994Y-0.6112
M16
G05
G00X0.5997Y-2.5344
M15
G01X0.5997Y-2.5187
M16
G05
G00X0.5997Y-2.7313
M15
G01X0.5997Y-2.7156
M16
G05
G00X1.0839Y-2.3888
M15
G01X1.0682Y-2.3888
M16
G05
G00X1.0839Y-2.8612
M15
G01X1.0682Y-2.8612
M16
G05
G00X5.1934Y-1.7844
M15
G01X5.1934Y-1.7687
M16
G05
G00X5.1934Y-1.9813
M15
G01X5.1934Y-1.9656
M16
G05
G00X5.6777Y-1.6388
M15
G01X5.6619Y-1.6388
M16
G05
G00X5.6777Y-2.1112
M15
G01X5.6619Y-2.1112
M16
G05
G00X0.3184Y-1.0344
M15
G01X0.3184Y-1.0187
M16
G05
G00X0.3184Y-1.2313
M15
G01X0.3184Y-1.2156
M16
G05
G00X0.8027Y-0.8888
M15
G01X0.7869Y-0.8888
M16
G05
G00X0.8027Y-1.3612
M15
G01X0.7869Y-1.3612
M16
G05
G00X8.5684Y-2.5344
M15
G01X8.5684Y-2.5187
M16
G05
G00X8.5684Y-2.7313
M15
G01X8.5684Y-2.7156
M16
G05
G00X9.0527Y-2.3888
M15
G01X9.0369Y-2.3888
M16
G05
G00X9.0527Y-2.8612
M15
G01X9.0369Y-2.8612
M16
G05
G00X4.2559Y-1.0344
M15
G01X4.2559Y-1.0187
M16
G05
G00X4.2559Y-1.2313
M15
G01X4.2559Y-1.2156
M16
G05
G00X4.7402Y-0.8888
M15
G01X4.7244Y-0.8888
M16
G05
G00X4.7402Y-1.3612
M15
G01X4.7244Y-1.3612
M16
G05
G00X8.7559Y-1.0344
M15
G01X8.7559Y-1.0187
M16
G05
G00X8.7559Y-1.2313
M15
G01X8.7559Y-1.2156
M16
G05
G00X9.2402Y-0.8888
M15
G01X9.2244Y-0.8888
M16
G05
G00X9.2402Y-1.3612
M15
G01X9.2244Y-1.3612
M16
G05
G00X0.3184Y-3.2844
M15
G01X0.3184Y-3.2687
M16
G05
G00X0.3184Y-3.4813
M15
G01X0.3184Y-3.4656
M16
G05
G00X0.8027Y-3.1388
M15
G01X0.7869Y-3.1388
M16
G05
G00X0.8027Y-3.6112
M15
G01X0.7869Y-3.6112
M16
G05
G00X2.3809Y-0.2844
M15
G01X2.3809Y-0.2687
M16
G05
G00X2.3809Y-0.4813
M15
G01X2.3809Y-0.4656
M16
G05
G00X2.8652Y-0.1388
M15
G01X2.8494Y-0.1388
M16
G05
G00X2.8652Y-0.6112
M15
G01X2.8494Y-0.6112
M16
G05
G00X8.3809Y-0.2844
M15
G01X8.3809Y-0.2687
M16
G05
G00X8.3809Y-0.4813
M15
G01X8.3809Y-0.4656
M16
G05
G00X8.8652Y-0.1388
M15
G01X8.8494Y-0.1388
M16
G05
G00X8.8652Y-0.6112
M15
G01X8.8494Y-0.6112
M16
G05
G00X8.1934Y-1.7844
M15
G01X8.1934Y-1.7687
M16
G05
G00X8.1934Y-1.9813
M15
G01X8.1934Y-1.9656
M16
G05
G00X8.6777Y-1.6388
M15
G01X8.6619Y-1.6388
M16
G05
G00X8.6777Y-2.1112
M15
G01X8.6619Y-2.1112
M16
G05
G00X0.4122Y-1.7844
M15
G01X0.4122Y-1.7687
M16
G05
G00X0.4122Y-1.9813
M15
G01X0.4122Y-1.9656
M16
G05
G00X0.8964Y-1.6388
M15
G01X0.8807Y-1.6388
M16
G05
G00X0.8964Y-2.1112
M15
G01X0.8807Y-2.1112
M16
G05
G00X6.3184Y-2.5344
M15
G01X6.3184Y-2.5187
M16
G05
G00X6.3184Y-2.7313
M15
G01X6.3184Y-2.7156
M16
G05
G00X6.8027Y-2.3888
M15
G01X6.7869Y-2.3888
M16
G05
G00X6.8027Y-2.8612
M15
G01X6.7869Y-2.8612
M16
G05
G00X7.2559Y-1.0344
M15
G01X7.2559Y-1.0187
M16
G05
G00X7.2559Y-1.2313
M15
G01X7.2559Y-1.2156
M16
G05
G00X7.7402Y-0.8888
M15
G01X7.7244Y-0.8888
M16
G05
G00X7.7402Y-1.3612
M15
G01X7.7244Y-1.3612
M16
G05
G00X4.0684Y-2.5344
M15
G01X4.0684Y-2.5187
M16
G05
G00X4.0684Y-2.7313
M15
G01X4.0684Y-2.7156
M16
G05
G00X4.5527Y-2.3888
M15
G01X4.5369Y-2.3888
M16
G05
G00X4.5527Y-2.8612
M15
G01X4.5369Y-2.8612
M16
G05
G00X1.4434Y-1.7844
M15
G01X1.4434Y-1.7687
M16
G05
G00X1.4434Y-1.9813
M15
G01X1.4434Y-1.9656
M16
G05
G00X1.9277Y-1.6388
M15
G01X1.9119Y-1.6388
M16
G05
G00X1.9277Y-2.1112
M15
G01X1.9119Y-2.1112
M16
G05
G00X6.5059Y-1.0344
M15
G01X6.5059Y-1.0187
M16
G05
G00X6.5059Y-1.2313
M15
G01X6.5059Y-1.2156
M16
G05
G00X6.9902Y-0.8888
M15
G01X6.9744Y-0.8888
M16
G05
G00X6.9902Y-1.3612
M15
G01X6.9744Y-1.3612
M16
G05
G00X5.3809Y-3.2844
M15
G01X5.3809Y-3.2687
M16
G05
G00X5.3809Y-3.4813
M15
G01X5.3809Y-3.4656
M16
G05
G00X5.8652Y-3.1388
M15
G01X5.8494Y-3.1388
M16
G05
G00X5.8652Y-3.6112
M15
G01X5.8494Y-3.6112
M16
G05
G00X0.1309Y-0.2844
M15
G01X0.1309Y-0.2687
M16
G05
G00X0.1309Y-0.4813
M15
G01X0.1309Y-0.4656
M16
G05
G00X0.6152Y-0.1388
M15
G01X0.5994Y-0.1388
M16
G05
G00X0.6152Y-0.6112
M15
G01X0.5994Y-0.6112
M16
G05
G00X5.3848Y-0.1388
M15
G01X5.4006Y-0.1388
M16
G05
G00X5.3848Y-0.6112
M15
G01X5.4006Y-0.6112
M16
G05
G00X5.8691Y-0.2687
M15
G01X5.8691Y-0.2844
M16
G05
G00X5.8691Y-0.4656
M15
G01X5.8691Y-0.4813
M16
G05
G00X7.6309Y-0.2844
M15
G01X7.6309Y-0.2687
M16
G05
G00X7.6309Y-0.4813
M15
G01X7.6309Y-0.4656
M16
G05
G00X8.1152Y-0.1388
M15
G01X8.0994Y-0.1388
M16
G05
G00X8.1152Y-0.6112
M15
G01X8.0994Y-0.6112
M16
G05
G00X5.9434Y-1.7844
M15
G01X5.9434Y-1.7687
M16
G05
G00X5.9434Y-1.9813
M15
G01X5.9434Y-1.9656
M16
G05
G00X6.4277Y-1.6388
M15
G01X6.4119Y-1.6388
M16
G05
G00X6.4277Y-2.1112
M15
G01X6.4119Y-2.1112
M16
G05
G00X10.1622Y-1.7844
M15
G01X10.1622Y-1.7687
M16
G05
G00X10.1622Y-1.9813
M15
G01X10.1622Y-1.9656
M16
G05
G00X10.6464Y-1.6388
M15
G01X10.6307Y-1.6388
M16
G05
G00X10.6464Y-2.1112
M15
G01X10.6307Y-2.1112
M16
G05
G00X3.3184Y-2.5344
M15
G01X3.3184Y-2.5187
M16
G05
G00X3.3184Y-2.7313
M15
G01X3.3184Y-2.7156
M16
G05
G00X3.8027Y-2.3888
M15
G01X3.7869Y-2.3888
M16
G05
G00X3.8027Y-2.8612
M15
G01X3.7869Y-2.8612
M16
G05
G00X9.5059Y-1.0344
M15
G01X9.5059Y-1.0187
M16
G05
G00X9.5059Y-1.2313
M15
G01X9.5059Y-1.2156
M16
G05
G00X9.9902Y-0.8888
M15
G01X9.9744Y-0.8888
M16
G05
G00X9.9902Y-1.3612
M15
G01X9.9744Y-1.3612
M16
G05
G00X7.8184Y-2.5344
M15
G01X7.8184Y-2.5187
M16
G05
G00X7.8184Y-2.7313
M15
G01X7.8184Y-2.7156
M16
G05
G00X8.3027Y-2.3888
M15
G01X8.2869Y-2.3888
M16
G05
G00X8.3027Y-2.8612
M15
G01X8.2869Y-2.8612
M16
G05
G00X8.0059Y-1.0344
M15
G01X8.0059Y-1.0187
M16
G05
G00X8.0059Y-1.2313
M15
G01X8.0059Y-1.2156
M16
G05
G00X8.4902Y-0.8888
M15
G01X8.4744Y-0.8888
M16
G05
G00X8.4902Y-1.3612
M15
G01X8.4744Y-1.3612
M16
G05
G00X2.3848Y-3.1388
M15
G01X2.4006Y-3.1388
M16
G05
G00X2.3848Y-3.6112
M15
G01X2.4006Y-3.6112
M16
G05
G00X2.8691Y-3.2687
M15
G01X2.8691Y-3.2844
M16
G05
G00X2.8691Y-3.4656
M15
G01X2.8691Y-3.4813
M16
G05
G00X9.4161Y-3.1388
M15
G01X9.4318Y-3.1388
M16
G05
G00X9.4161Y-3.6112
M15
G01X9.4318Y-3.6112
M16
G05
G00X9.9003Y-3.2687
M15
G01X9.9003Y-3.2844
M16
G05
G00X9.9003Y-3.4656
M15
G01X9.9003Y-3.4813
M16
G05
G00X7.4434Y-1.7844
M15
G01X7.4434Y-1.7687
M16
G05
G00X7.4434Y-1.9813
M15
G01X7.4434Y-1.9656
M16
G05
G00X7.9277Y-1.6388
M15
G01X7.9119Y-1.6388
M16
G05
G00X7.9277Y-2.1112
M15
G01X7.9119Y-2.1112
M16
G05
G00X8.9434Y-1.7844
M15
G01X8.9434Y-1.7687
M16
G05
G00X8.9434Y-1.9813
M15
G01X8.9434Y-1.9656
M16
G05
G00X9.4277Y-1.6388
M15
G01X9.4119Y-1.6388
M16
G05
G00X9.4277Y-2.1112
M15
G01X9.4119Y-2.1112
M16
G05
G00X5.7559Y-1.0344
M15
G01X5.7559Y-1.0187
M16
G05
G00X5.7559Y-1.2313
M15
G01X5.7559Y-1.2156
M16
G05
G00X6.2402Y-0.8888
M15
G01X6.2244Y-0.8888
M16
G05
G00X6.2402Y-1.3612
M15
G01X6.2244Y-1.3612
M16
G05
G00X7.0684Y-2.5344
M15
G01X7.0684Y-2.5187
M16
G05
G00X7.0684Y-2.7313
M15
G01X7.0684Y-2.7156
M16
G05
G00X7.5527Y-2.3888
M15
G01X7.5369Y-2.3888
M16
G05
G00X7.5527Y-2.8612
M15
G01X7.5369Y-2.8612
M16
G05
G00X9.1309Y-0.2844
M15
G01X9.1309Y-0.2687
M16
G05
G00X9.1309Y-0.4813
M15
G01X9.1309Y-0.4656
M16
G05
G00X9.6152Y-0.1388
M15
G01X9.5994Y-0.1388
M16
G05
G00X9.6152Y-0.6112
M15
G01X9.5994Y-0.6112
M16
G05
G00X2.1934Y-3.2844
M15
G01X2.1934Y-3.2687
M16
G05
G00X2.1934Y-3.4813
M15
G01X2.1934Y-3.4656
M16
G05
G00X2.6777Y-3.1388
M15
G01X2.6619Y-3.1388
M16
G05
G00X2.6777Y-3.6112
M15
G01X2.6619Y-3.6112
M16
G05
G00X2.5684Y-2.5344
M15
G01X2.5684Y-2.5187
M16
G05
G00X2.5684Y-2.7313
M15
G01X2.5684Y-2.7156
M16
G05
G00X3.0527Y-2.3888
M15
G01X3.0369Y-2.3888
M16
G05
G00X3.0527Y-2.8612
M15
G01X3.0369Y-2.8612
M16
G05
G00X1.2559Y-3.2844
M15
G01X1.2559Y-3.2687
M16
G05
G00X1.2559Y-3.4813
M15
G01X1.2559Y-3.4656
M16
G05
G00X1.7402Y-3.1388
M15
G01X1.7244Y-3.1388
M16
G05
G00X1.7402Y-3.6112
M15
G01X1.7244Y-3.6112
M16
G05
G00X9.9747Y-2.5344
M15
G01X9.9747Y-2.5187
M16
G05
G00X9.9747Y-2.7313
M15
G01X9.9747Y-2.7156
M16
G05
G00X10.4589Y-2.3888
M15
G01X10.4432Y-2.3888
M16
G05
G00X10.4589Y-2.8612
M15
G01X10.4432Y-2.8612
M16
G05
G00X5.5684Y-2.5344
M15
G01X5.5684Y-2.5187
M16
G05
G00X5.5684Y-2.7313
M15
G01X5.5684Y-2.7156
M16
G05
G00X6.0527Y-2.3888
M15
G01X6.0369Y-2.3888
M16
G05
G00X6.0527Y-2.8612
M15
G01X6.0369Y-2.8612
M16
G05
G00X3.6934Y-1.7844
M15
G01X3.6934Y-1.7687
M16
G05
G00X3.6934Y-1.9813
M15
G01X3.6934Y-1.9656
M16
G05
G00X4.1777Y-1.6388
M15
G01X4.1619Y-1.6388
M16
G05
G00X4.1777Y-2.1112
M15
G01X4.1619Y-2.1112
M16
G05
G00X1.2559Y-1.0344
M15
G01X1.2559Y-1.0187
M16
G05
G00X1.2559Y-1.2313
M15
G01X1.2559Y-1.2156
M16
G05
G00X1.7402Y-0.8888
M15
G01X1.7244Y-0.8888
M16
G05
G00X1.7402Y-1.3612
M15
G01X1.7244Y-1.3612
M16
G05
G00X2.9434Y-1.7844
M15
G01X2.9434Y-1.7687
M16
G05
G00X2.9434Y-1.9813
M15
G01X2.9434Y-1.9656
M16
G05
G00X3.4277Y-1.6388
M15
G01X3.4119Y-1.6388
M16
G05
G00X3.4277Y-2.1112
M15
G01X3.4119Y-2.1112
M16
G05
G00X0.2247Y-1.7844
M15
G01X0.2247Y-1.7687
M16
G05
G00X0.2247Y-1.9813
M15
G01X0.2247Y-1.9656
M16
G05
G00X0.7089Y-1.6388
M15
G01X0.6932Y-1.6388
M16
G05
G00X0.7089Y-2.1112
M15
G01X0.6932Y-2.1112
M16
G05
G00X1.3536Y-3.1388
M15
G01X1.3693Y-3.1388
M16
G05
G00X1.3536Y-3.6112
M15
G01X1.3693Y-3.6112
M16
G05
G00X1.8378Y-3.2687
M15
G01X1.8378Y-3.2844
M16
G05
G00X1.8378Y-3.4656
M15
G01X1.8378Y-3.4813
M16
G05
G00X9.5059Y-3.2844
M15
G01X9.5059Y-3.2687
M16
G05
G00X9.5059Y-3.4813
M15
G01X9.5059Y-3.4656
M16
G05
G00X9.9902Y-3.1388
M15
G01X9.9744Y-3.1388
M16
G05
G00X9.9902Y-3.6112
M15
G01X9.9744Y-3.6112
M16
G05
T0
M30
