M48
; DRILL file {KiCad (5.1.5)-3} date 11/11/2020 21:52:07
; FORMAT={-:-/ absolute / inch / decimal}
; #@! TF.CreationDate,2020-11-11T21:52:07+01:00
; #@! TF.GenerationSoftware,Kicad,Pcbnew,(5.1.5)-3
; #@! TF.FileFunction,NonPlated,1,2,NPTH
FMAT,2
INCH
T1C0.0256
T2C0.0689
T3C0.1200
T4C0.1260
T5C0.1570
%
G90
G05
T1
X5.511Y-0.0319
X5.7386Y-0.0319
T2
X1.5Y-3.1191
X1.5Y-3.6309
X10.2188Y-2.3691
X10.2188Y-2.8809
X5.8125Y-2.3691
X5.8125Y-2.8809
X3.9375Y-1.6191
X3.9375Y-2.1309
X1.5Y-0.8691
X1.5Y-1.3809
X3.1875Y-1.6191
X3.1875Y-2.1309
X0.4688Y-1.6191
X0.4688Y-2.1309
X1.5938Y-3.1191
X1.5938Y-3.6309
X9.75Y-3.1191
X9.75Y-3.6309
X6.375Y-0.1191
X6.375Y-0.6309
X1.875Y-0.1191
X1.875Y-0.6309
X10.5Y-0.1191
X10.5Y-0.6309
X8.625Y-3.1191
X8.625Y-3.6309
X5.0625Y-2.3691
X5.0625Y-2.8809
X5.25Y-0.8691
X5.25Y-1.3809
X2.0625Y-2.3691
X2.0625Y-2.8809
X2.4375Y-1.6191
X2.4375Y-2.1309
X3.0Y-0.8691
X3.0Y-1.3809
X5.625Y-3.1191
X5.625Y-3.6309
X8.8125Y-3.1191
X8.8125Y-3.6309
X7.125Y-0.1191
X7.125Y-0.6309
X4.875Y-0.1191
X4.875Y-0.6309
X5.625Y-3.1191
X5.625Y-3.6309
X4.6875Y-1.6191
X4.6875Y-2.1309
X2.25Y-0.8691
X2.25Y-1.3809
X6.9375Y-1.6191
X6.9375Y-2.1309
X10.6875Y-0.8691
X10.6875Y-1.3809
X3.75Y-0.8691
X3.75Y-1.3809
X10.6875Y-3.1191
X10.6875Y-3.6309
X1.125Y-0.1191
X1.125Y-0.6309
X4.125Y-0.1191
X4.125Y-0.6309
X3.375Y-0.1191
X3.375Y-0.6309
X0.8438Y-2.3691
X0.8438Y-2.8809
X5.4375Y-1.6191
X5.4375Y-2.1309
X0.5625Y-0.8691
X0.5625Y-1.3809
X8.8125Y-2.3691
X8.8125Y-2.8809
X4.5Y-0.8691
X4.5Y-1.3809
X9.0Y-0.8691
X9.0Y-1.3809
X0.5625Y-3.1191
X0.5625Y-3.6309
X2.625Y-0.1191
X2.625Y-0.6309
X8.625Y-0.1191
X8.625Y-0.6309
X8.4375Y-1.6191
X8.4375Y-2.1309
X0.6562Y-1.6191
X0.6562Y-2.1309
X6.5625Y-2.3691
X6.5625Y-2.8809
X7.5Y-0.8691
X7.5Y-1.3809
X4.3125Y-2.3691
X4.3125Y-2.8809
X1.6875Y-1.6191
X1.6875Y-2.1309
X6.75Y-0.8691
X6.75Y-1.3809
X5.625Y-3.1191
X5.625Y-3.6309
X0.375Y-0.1191
X0.375Y-0.6309
X5.625Y-0.6309
X7.875Y-0.1191
X7.875Y-0.6309
X6.1875Y-1.6191
X6.1875Y-2.1309
X10.4062Y-1.6191
X10.4062Y-2.1309
X3.5625Y-2.3691
X3.5625Y-2.8809
X9.75Y-0.8691
X9.75Y-1.3809
X8.0625Y-2.3691
X8.0625Y-2.8809
X8.25Y-0.8691
X8.25Y-1.3809
X2.625Y-3.1191
X2.625Y-3.6309
X9.6562Y-3.1191
X9.6562Y-3.6309
X7.6875Y-1.6191
X7.6875Y-2.1309
X9.1875Y-1.6191
X9.1875Y-2.1309
X6.0Y-0.8691
X6.0Y-1.3809
X7.3125Y-2.3691
X7.3125Y-2.8809
X9.375Y-0.1191
X9.375Y-0.6309
X2.4375Y-3.1191
X2.4375Y-3.6309
X2.8125Y-2.3691
X2.8125Y-2.8809
T3
X9.7487Y-2.35
X10.6888Y-2.35
X10.03Y-0.1
X10.97Y-0.1
X3.6565Y-3.65
X7.5935Y-3.65
X3.375Y-3.65
X7.875Y-3.65
X0.3737Y-2.35
X1.3137Y-2.35
X3.0Y-3.65
X8.25Y-3.65
X9.9362Y-1.6
X10.8763Y-1.6
T4
X7.8689Y-3.8384
X3.3807Y-3.8384
X10.8611Y0.0888
X10.8611Y-3.8384
X7.8689Y0.0888
X0.3886Y0.0888
X0.3886Y-3.8384
X3.3807Y0.0888
T5
X9.7487Y-2.95
X10.6888Y-2.95
X10.03Y-0.7
X10.97Y-0.7
X3.6565Y-3.05
X7.5935Y-3.05
X3.375Y-3.05
X7.875Y-3.05
X0.3737Y-2.95
X1.3137Y-2.95
X3.0Y-3.05
X8.25Y-3.05
X9.9362Y-2.2
X10.8763Y-2.2
T0
M30
